<svg width="28" height="28" viewBox="0 0 28 28" fill="none" xmlns="http://www.w3.org/2000/svg">
<path d="M0 8C0 3.58172 3.58172 0 8 0H20C24.4183 0 28 3.58172 28 8V20C28 24.4183 24.4183 28 20 28H8C3.58172 28 0 24.4183 0 20V8Z" fill="#343434"/>
<g clip-path="url(#clip0_13737_671)">
<path d="M21.4146 7.40384L11.3975 6.19148C11.0877 6.15398 10.7789 6.26874 10.568 6.49972C10.4044 6.679 10.3136 6.91337 10.3136 7.15657V14.0539V14.5389V23L9.48164 21.518C8.94975 20.5704 8.05903 19.8789 7.01183 19.6006L5 19.0659V11.2009C5 10.718 5.20165 10.2572 5.55591 9.93061L10.3039 5.55326C10.6836 5.20312 11.2 5.04282 11.7103 5.11663L22.4737 6.67325C23.3189 6.79549 23.9463 7.52272 23.9463 8.38019V21.1677L23.0339 21.6527L22.9334 14.5389L22.9266 14.0539V9.11599C22.9266 8.24337 22.2774 7.50827 21.4146 7.40384Z" fill="#FBFBFB"/>
<path d="M22.9264 13.7306H10.2598V14.3773H22.9264V13.7306Z" fill="#FBFBFB"/>
<path d="M11.8803 8.77246H11.3471C11.221 8.77246 11.1187 8.87518 11.1187 9.00188V12.4432C11.1187 12.5699 11.221 12.6727 11.3471 12.6727H11.8803C12.0065 12.6727 12.1088 12.5699 12.1088 12.4432V9.00188C12.1088 8.87518 12.0065 8.77246 11.8803 8.77246Z" fill="#FBFBFB"/>
<path d="M11.8803 15.4551H11.3471C11.221 15.4551 11.1187 15.5578 11.1187 15.6845V19.1259C11.1187 19.2525 11.221 19.3553 11.3471 19.3553H11.8803C12.0065 19.3553 12.1088 19.2525 12.1088 19.1259V15.6845C12.1088 15.5578 12.0065 15.4551 11.8803 15.4551Z" fill="#FBFBFB"/>
</g>
<defs>
<clipPath id="clip0_13737_671">
<rect width="19" height="18" fill="white" transform="translate(5 5)"/>
</clipPath>
</defs>
</svg>
